<svg width="32" height="16" viewBox="0 0 32 16" fill="none" xmlns="http://www.w3.org/2000/svg">
<circle cx="19" cy="13" r="2" fill="white" stroke="#D9D9D9" stroke-width="2"/>
<circle cx="24.5" cy="8.5" r="2.5" fill="white" stroke="#D9D9D9" stroke-width="2"/>
<path d="M2.91889 12.1326C6.31618 10.568 7.44666 8.02366 7.91759 2.1617C7.96654 1.55238 8.53745 1.11517 9.13517 1.24325L14.0661 2.29988C14.5887 2.41186 14.9328 2.91919 14.8227 3.44214C12.9735 12.2215 6.87142 14.0051 2.97464 13.6366C2.06668 13.5508 2.09051 12.5141 2.91889 12.1326Z" fill="white"/>
<path d="M6 6.5C5.72441 8.42913 5.97287 10.5177 2.90247 12.0877C2.09045 12.5029 1.99787 13.7216 2.87399 13.9749C5.89683 14.849 10.0614 14.408 15 7" stroke="#D9D9D9" stroke-width="2"/>
</svg>
